<svg class="flame" viewBox="0 0 150 150" version="1.1" xmlns="http://www.w3.org/2000/svg">
  <g stroke="none" fill="none" fill-rule="evenodd">
    <path d="M75,150 C116.421356,150 150,116.421356 150,75 C150,33.5786438 116.421356,0 75,0 C33.5786438,0 0,33.5786438 0,75 C0,116.421356 33.5786438,150 75,150 Z" fill="#F82C2C"></path>
    <path d="M59.7382423,56.870747 C43.956588,79.7710212 34.5331119,104.080398 51.9580672,122.230835 C57.0041158,127.489079 62.9934537,130.16763 69.1067848,130.8 C59.2171573,127.912752 51.854478,118.056878 60.4366845,100.414848 C65.7165935,89.5656979 78.8677105,76.7927616 74.4887134,61.744548 C74.4887134,61.744548 86.3277008,76.6515375 78.2665794,99.3792045 C74.6064284,109.701118 90.7427972,110.829342 86.3716478,99.5627958 C83.7285542,92.7526553 98.8541437,113.090496 90.7051284,124.848188 C98.3942705,119.539731 102.550394,110.797958 105.604705,101.463045 C114.26068,75.0023537 102.869009,32.3228582 59.7382423,19.2 C59.7382423,19.2 77.205575,31.5320032 59.7382423,56.870747 Z" fill="#FFFFFF"></path>
  </g>
</svg>
